<mxfile host="app.diagrams.net" modified="2023-09-07T01:37:01.934Z" agent="Mozilla/5.0 (Windows NT 10.0; Win64; x64) AppleWebKit/537.36 (KHTML, like Gecko) Chrome/116.0.0.0 Safari/537.36" etag="Pnubit7VyHk468qa9zW7" version="21.7.2" type="github">
  <diagram name="第 1 页" id="_wFK92wsSEM_zEu_4nWD">
    <mxGraphModel dx="1535" dy="820" grid="1" gridSize="10" guides="1" tooltips="1" connect="1" arrows="1" fold="1" page="1" pageScale="1" pageWidth="1920" pageHeight="1200" math="0" shadow="0">
      <root>
        <mxCell id="0" />
        <mxCell id="1" parent="0" />
        <mxCell id="udJUYK54N4eHYX3xh_mK-1" value="信息内网" style="rounded=1;whiteSpace=wrap;html=1;dashed=1;verticalAlign=top;fontSize=36;align=left;spacingTop=30;spacingLeft=40;strokeWidth=2;arcSize=9;" vertex="1" parent="1">
          <mxGeometry x="500" y="190" width="840" height="490" as="geometry" />
        </mxCell>
        <mxCell id="udJUYK54N4eHYX3xh_mK-2" value="信息系统统一编码台账管控平台" style="rounded=1;whiteSpace=wrap;html=1;verticalAlign=top;fontSize=18;fillColor=#DBEEF4;" vertex="1" parent="1">
          <mxGeometry x="730" y="277" width="560" height="343" as="geometry" />
        </mxCell>
        <mxCell id="udJUYK54N4eHYX3xh_mK-3" value="" style="sketch=0;outlineConnect=0;fontColor=#232F3E;gradientColor=none;fillColor=#232F3D;strokeColor=none;dashed=0;verticalLabelPosition=bottom;verticalAlign=top;align=center;html=1;fontSize=12;fontStyle=0;aspect=fixed;pointerEvents=1;shape=mxgraph.aws4.users;" vertex="1" parent="1">
          <mxGeometry x="536" y="425.38" width="45" height="45" as="geometry" />
        </mxCell>
        <mxCell id="udJUYK54N4eHYX3xh_mK-4" value="" style="image;aspect=fixed;perimeter=ellipsePerimeter;html=1;align=center;shadow=0;dashed=0;spacingTop=3;image=img/lib/active_directory/firewall.svg;" vertex="1" parent="1">
          <mxGeometry x="620" y="391.51" width="70" height="114.75" as="geometry" />
        </mxCell>
        <mxCell id="udJUYK54N4eHYX3xh_mK-5" value="接入安全防护" style="rounded=1;whiteSpace=wrap;html=1;horizontal=1;verticalAlign=top;fillColor=#fff2cc;strokeColor=#d6b656;" vertex="1" parent="1">
          <mxGeometry x="750" y="333.37" width="120" height="246.51" as="geometry" />
        </mxCell>
        <mxCell id="udJUYK54N4eHYX3xh_mK-6" value="传输加密" style="rounded=1;whiteSpace=wrap;html=1;fillColor=#d5e8d4;strokeColor=#82b366;" vertex="1" parent="1">
          <mxGeometry x="770" y="384.94" width="80" height="30" as="geometry" />
        </mxCell>
        <mxCell id="udJUYK54N4eHYX3xh_mK-7" value="权限校验" style="rounded=1;whiteSpace=wrap;html=1;fillColor=#d5e8d4;strokeColor=#82b366;" vertex="1" parent="1">
          <mxGeometry x="770" y="446.69" width="80" height="30" as="geometry" />
        </mxCell>
        <mxCell id="udJUYK54N4eHYX3xh_mK-8" value="操作日志" style="rounded=1;whiteSpace=wrap;html=1;fillColor=#d5e8d4;strokeColor=#82b366;" vertex="1" parent="1">
          <mxGeometry x="770" y="507.94000000000005" width="80" height="30" as="geometry" />
        </mxCell>
        <mxCell id="udJUYK54N4eHYX3xh_mK-9" value="" style="endArrow=classic;startArrow=classic;html=1;rounded=0;entryX=0;entryY=0.5;entryDx=0;entryDy=0;fillColor=#dae8fc;strokeColor=#6c8ebf;" edge="1" parent="1" source="udJUYK54N4eHYX3xh_mK-3" target="udJUYK54N4eHYX3xh_mK-4">
          <mxGeometry width="50" height="50" relative="1" as="geometry">
            <mxPoint x="650" y="608.38" as="sourcePoint" />
            <mxPoint x="700" y="558.38" as="targetPoint" />
          </mxGeometry>
        </mxCell>
        <mxCell id="udJUYK54N4eHYX3xh_mK-10" value="" style="endArrow=classic;startArrow=classic;html=1;rounded=0;entryX=0;entryY=0.5;entryDx=0;entryDy=0;exitX=1;exitY=0.5;exitDx=0;exitDy=0;fillColor=#dae8fc;strokeColor=#6c8ebf;" edge="1" parent="1" source="udJUYK54N4eHYX3xh_mK-4" target="udJUYK54N4eHYX3xh_mK-2">
          <mxGeometry width="50" height="50" relative="1" as="geometry">
            <mxPoint x="630" y="670" as="sourcePoint" />
            <mxPoint x="680" y="620" as="targetPoint" />
          </mxGeometry>
        </mxCell>
        <mxCell id="udJUYK54N4eHYX3xh_mK-11" value="数据安全防护" style="rounded=1;whiteSpace=wrap;html=1;horizontal=1;verticalAlign=top;fillColor=#fff2cc;strokeColor=#d6b656;" vertex="1" parent="1">
          <mxGeometry x="1150" y="331.69" width="120" height="249.88" as="geometry" />
        </mxCell>
        <mxCell id="udJUYK54N4eHYX3xh_mK-12" value="权限限制" style="rounded=1;whiteSpace=wrap;html=1;fillColor=#d5e8d4;strokeColor=#82b366;" vertex="1" parent="1">
          <mxGeometry x="1170" y="384.94" width="80" height="30" as="geometry" />
        </mxCell>
        <mxCell id="udJUYK54N4eHYX3xh_mK-13" value="逻辑删除" style="rounded=1;whiteSpace=wrap;html=1;fillColor=#d5e8d4;strokeColor=#82b366;" vertex="1" parent="1">
          <mxGeometry x="1170" y="446.69" width="80" height="30" as="geometry" />
        </mxCell>
        <mxCell id="udJUYK54N4eHYX3xh_mK-14" value="数据备份" style="rounded=1;whiteSpace=wrap;html=1;fillColor=#d5e8d4;strokeColor=#82b366;" vertex="1" parent="1">
          <mxGeometry x="1170" y="507.94000000000005" width="80" height="30" as="geometry" />
        </mxCell>
        <mxCell id="udJUYK54N4eHYX3xh_mK-15" value="业务功能" style="rounded=1;whiteSpace=wrap;html=1;horizontal=1;verticalAlign=top;fillColor=#fff2cc;strokeColor=#d6b656;" vertex="1" parent="1">
          <mxGeometry x="890" y="331.69" width="240" height="258.31" as="geometry" />
        </mxCell>
        <mxCell id="udJUYK54N4eHYX3xh_mK-20" value="资料辅助查询" style="rounded=1;whiteSpace=wrap;html=1;fillColor=#d5e8d4;strokeColor=#82b366;" vertex="1" parent="1">
          <mxGeometry x="910" y="549.88" width="80" height="30" as="geometry" />
        </mxCell>
        <mxCell id="udJUYK54N4eHYX3xh_mK-22" value="防火墙" style="text;html=1;strokeColor=none;fillColor=none;align=center;verticalAlign=middle;whiteSpace=wrap;rounded=0;" vertex="1" parent="1">
          <mxGeometry x="622" y="495" width="60" height="30" as="geometry" />
        </mxCell>
        <mxCell id="udJUYK54N4eHYX3xh_mK-23" value="台账概览" style="rounded=1;whiteSpace=wrap;html=1;fillColor=#d5e8d4;strokeColor=#82b366;" vertex="1" parent="1">
          <mxGeometry x="910" y="508.62" width="200" height="30" as="geometry" />
        </mxCell>
        <mxCell id="udJUYK54N4eHYX3xh_mK-24" value="统一编码台账管理" style="rounded=1;whiteSpace=wrap;html=1;verticalAlign=top;fillColor=#b1ddf0;strokeColor=#10739e;" vertex="1" parent="1">
          <mxGeometry x="910" y="372.07" width="200" height="122.93" as="geometry" />
        </mxCell>
        <mxCell id="udJUYK54N4eHYX3xh_mK-16" value="公共信息台账" style="rounded=1;whiteSpace=wrap;html=1;fillColor=#d5e8d4;strokeColor=#82b366;" vertex="1" parent="1">
          <mxGeometry x="924" y="405.13" width="80" height="30" as="geometry" />
        </mxCell>
        <mxCell id="udJUYK54N4eHYX3xh_mK-17" value="资源分配台账" style="rounded=1;whiteSpace=wrap;html=1;fillColor=#d5e8d4;strokeColor=#82b366;" vertex="1" parent="1">
          <mxGeometry x="1014" y="405.13" width="80" height="30" as="geometry" />
        </mxCell>
        <mxCell id="udJUYK54N4eHYX3xh_mK-18" value="安全策略台账" style="rounded=1;whiteSpace=wrap;html=1;fillColor=#d5e8d4;strokeColor=#82b366;" vertex="1" parent="1">
          <mxGeometry x="924" y="444.37" width="80" height="30" as="geometry" />
        </mxCell>
        <mxCell id="udJUYK54N4eHYX3xh_mK-19" value="其他台账资料" style="rounded=1;whiteSpace=wrap;html=1;fillColor=#d5e8d4;strokeColor=#82b366;" vertex="1" parent="1">
          <mxGeometry x="1014" y="444.37" width="80" height="30" as="geometry" />
        </mxCell>
        <mxCell id="udJUYK54N4eHYX3xh_mK-27" value="信息系统管理" style="rounded=1;whiteSpace=wrap;html=1;fillColor=#d5e8d4;strokeColor=#82b366;" vertex="1" parent="1">
          <mxGeometry x="1030" y="549.88" width="80" height="30" as="geometry" />
        </mxCell>
      </root>
    </mxGraphModel>
  </diagram>
</mxfile>
